<svg xmlns="http://www.w3.org/2000/svg" viewBox="0 0 48 48" role="img" aria-label="Artisan Moris">
  <path d="M24 4C32 4 39 8 42 16C44.6 22.2 43 30 38 36C34 41 29 44 24 44C19 44 14 41 10 36C5 30 3.4 22.2 6 16C9 8 16 4 24 4Z" fill="#0d8b66"/>
  <path d="M24 44C19 44 14 41 10 36C5 30 3.4 22.2 6 16C7 13.5 8.7 11.4 10.8 9.8C8.7 13 8 17 9.4 21.5C12 30 21 41 38.6 35.4C34.4 41 29 44 24 44Z" fill="#0a5e46" opacity="0.55"/>
  <path d="M14 39 L33 18.5" stroke="#ecd29a" stroke-width="3.1" stroke-linecap="round"/>
  <path d="M34 39 L15 18.5" stroke="#ecd29a" stroke-width="3.1" stroke-linecap="round"/>
  <path d="M31.4 14.6a3.6 3.6 0 1 0 3.4 5.7" fill="none" stroke="#ecd29a" stroke-width="2.3" stroke-linecap="round"/>
  <path d="M12.6 15.4l3.6 3.5-2.5 1.1z" fill="#ecd29a"/>
  <rect x="9.4" y="25.4" width="29.2" height="4.8" rx="2.4" fill="#f7f4ee"/>
  <path d="M15 26.4C15 18.3 19 13.9 24 13.9C29 13.9 33 18.3 33 26.4Z" fill="#f7f4ee"/>
  <rect x="22" y="10.4" width="4" height="4.8" rx="2" fill="#f7f4ee"/>
  <path d="M20.2 26C20.2 20 20.8 16.7 22.3 14.6" fill="none" stroke="#cfe7dd" stroke-width="1.3" stroke-linecap="round"/>
  <path d="M27.8 26C27.8 20 27.2 16.7 25.7 14.6" fill="none" stroke="#cfe7dd" stroke-width="1.3" stroke-linecap="round"/>
</svg>
